<?xml version='1.0' encoding='utf-8'?>
<svg xmlns="http://www.w3.org/2000/svg" width="100%" height="100%" viewBox="0 0 444 444" version="1.1" style="fill-rule:evenodd;clip-rule:evenodd;stroke-linejoin:round;stroke-miterlimit:1.41421;"><g id="Layer_5_87_"><path d="M115.419,281.444c-6.78,-6.777 -9.334,-3.372 -10.842,-1.863c-39.042,39.043 -73.704,133.247 -55.38,124.046c66.707,-33.494 77.822,-23.522 116.863,-62.562c1.509,-1.509 4.98,-3.997 -1.997,-10.976l-48.644,-48.645Z" style="fill:#147ac9;fill-rule:nonzero;"/><path d="M325.892,280.921c-1.769,-5.63 1.937,-8.344 3.497,-10.028c86.171,-93.032 140.936,-216.98 100.352,-257.566c-40.37,-40.368 -160.496,15.997 -253.502,101.546c-1.84,1.695 -5.467,4.904 -11.955,3.55l-28.977,-6.9c-8.046,-1.914 -19.414,1.302 -25.262,7.15l-106.326,106.326c-5.848,5.849 -3.948,11.685 4.222,12.968l76.903,12.085c8.171,1.285 19.64,-2.449 25.487,-8.299c0,0 3.968,-3.978 7.954,0.007c21.995,21.992 62.867,62.864 83.822,83.82c4.165,4.164 0.176,8.125 0.176,8.125c-5.85,5.85 -9.583,17.316 -8.298,25.488l12.084,76.902c1.284,8.173 7.12,10.073 12.968,4.224l106.328,-106.328c5.847,-5.848 9.064,-17.214 7.148,-25.259l-6.621,-27.811ZM302.087,143.555c-18.01,-18.01 -18.01,-47.206 0,-65.212c18.008,-18.01 47.204,-18.01 65.214,0c18.007,18.005 18.007,47.202 0,65.21c-18.01,18.01 -47.208,18.01 -65.214,0.002Z" style="fill:#147ac9;fill-rule:nonzero;"/></g></svg>